<svg width="99" height="99" viewBox="0 0 99 99" fill="none" xmlns="http://www.w3.org/2000/svg">
<ellipse cx="49.44" cy="49.255" rx="49.44" ry="49.255" fill="white"/>
<path d="M49.9179 8.15923e-05C37.0273 -0.0207517 25.97 3.948 16.7148 11.9324C6.83981 20.448 1.28251 31.8699 0.00647133 46.2397C-0.420612 70.9376 20.3711 72.8074 38.8294 58.573C41.4856 60.2136 43.6836 62.2188 44.22 65.5678C26.7461 76.5209 17.2981 79.6511 2.98564 67.0782C5.01168 72.672 8.05856 77.7657 12.1263 82.2918C20.7669 91.9063 32.0586 97.2501 46.0221 98.422L46.2513 98.448C58.595 98.9688 69.3711 95.9897 78.5117 89.4584C77.9804 88.6615 77.2461 87.9845 76.3919 87.5418C77.5273 86.9532 78.4544 86.0053 78.97 84.8334C79.4492 85.9011 80.2408 86.7761 81.2356 87.3751C81.5377 87.1251 81.8554 86.8907 82.1523 86.6303C92.0273 78.1147 97.5586 66.6355 98.8294 52.2657C99.4023 37.8595 95.4023 25.823 86.7669 16.2136C78.1263 6.59904 66.8033 1.25008 52.8398 0.0834149L52.5273 0.0573733C51.6523 0.0209149 50.7773 8.15923e-05 49.9179 8.15923e-05ZM21.5846 12.5574C22.2981 14.172 23.5429 15.4845 25.1054 16.297C23.5481 17.1095 22.2981 18.4272 21.5846 20.0365C20.8658 18.422 19.595 17.1095 18.0325 16.297C19.5898 15.4845 20.8658 14.172 21.5846 12.5574ZM32.3294 19.3803C33.2513 21.4636 34.8658 23.1563 36.8815 24.2032C34.8711 25.2501 33.2513 26.9792 32.3294 29.0574C31.4023 26.974 29.7877 25.2501 27.7721 24.2032C29.7825 23.1563 31.4023 21.4636 32.3294 19.3803ZM77.7981 23.6355C79.7513 23.6042 81.4075 23.8699 82.5533 24.2917C82.7721 25.2397 82.845 26.5209 82.7252 27.974C82.3658 32.3334 80.2773 38.4063 75.22 43.073L61.9804 57.5157C62.3815 67.6355 55.6263 71.6668 50.1471 77.2136C51.9075 69.5313 52.8033 61.6563 47.1992 55.3178C41.595 48.9793 33.6367 48.8751 25.7669 49.6355C31.9804 44.922 36.8554 38.7136 46.8815 40.3907L62.9283 29.172C67.7721 25.1303 73.4961 23.6928 77.7981 23.6355ZM21.1263 27.6876C21.6419 28.8595 22.569 29.8074 23.7044 30.4011C22.569 30.9897 21.6419 31.9688 21.1263 33.1407C20.6002 31.9636 19.6836 30.9897 18.5481 30.4011C19.6783 29.8074 20.6054 28.8595 21.1263 27.6876ZM69.0325 33.198C68.9075 33.198 68.7981 33.2084 68.6888 33.224C67.1054 33.4428 65.8398 34.7709 65.7356 36.422C65.6158 38.3074 67.0794 39.9272 68.9752 40.047C70.8658 40.1667 72.4908 38.7345 72.6106 36.849C72.7304 34.9636 71.2981 33.3438 69.4023 33.224C69.2825 33.2136 69.1523 33.198 69.0325 33.198ZM78.4283 61.8282C78.9492 63.0001 79.845 63.948 80.9804 64.5365C79.845 65.1303 78.9492 66.1043 78.4283 67.2761C77.9075 66.1095 76.9856 65.1303 75.8502 64.5365C76.9856 63.948 77.9075 63.0001 78.4283 61.8282ZM72.095 71.1303C73.0221 73.2136 74.6367 74.9063 76.6523 75.9532C74.6367 77.0053 73.0221 78.724 72.095 80.8074C71.1731 78.7293 69.5533 77.0053 67.5377 75.9532C69.5586 74.9063 71.1731 73.2136 72.095 71.1303Z" fill="#145EA9"/>
</svg>
